<svg id="Layer_1" data-name="Layer 1" xmlns="http://www.w3.org/2000/svg" viewBox="0 0 307.96 65.7"><defs><style>.cls-1{fill:#e00837;}</style></defs><title>MenuBuilder</title><path class="cls-1" d="M55.37,68.17a1.19,1.19,0,0,1-.22.71,2.17,2.17,0,0,1-.55.5c-.21.14-.42.26-.64.38l-.58.31a2,2,0,0,0-.79-.35,1.34,1.34,0,0,1-.72-.45h-.24a1.78,1.78,0,0,0-.88.18,2.12,2.12,0,0,1-.81-.64c-.21-.28-.4-.58-.59-.89s-.37-.61-.56-.9a2.64,2.64,0,0,0-.7-.75c-.42-1.48-.8-3-1.12-4.47a43.64,43.64,0,0,1-.74-4.6,3.22,3.22,0,0,0,.11-.49,4.42,4.42,0,0,0,0-.49,1.64,1.64,0,0,0,0-.37.3.3,0,0,0-.23-.25,2.25,2.25,0,0,0,.23-.82c0-.31,0-.59,0-.86a6,6,0,0,0-.14-1.46,1,1,0,0,0,.18-.73.92.92,0,0,1,.17-.73,6.82,6.82,0,0,1-.17-1.46,9.21,9.21,0,0,1,.19-1.9,9.21,9.21,0,0,0,.19-1.9c0-.15,0-.3,0-.45s0-.29-.06-.44c.12-.47.23-1,.34-1.44a7.29,7.29,0,0,0,.15-1.48,2.26,2.26,0,0,0-.14-.88,32.16,32.16,0,0,0,.65-4c.13-1.34.25-2.71.37-4.09L48,32.77a.2.2,0,0,1,0-.13.41.41,0,0,1,.2-.35.49.49,0,0,0,.15-.49A4.77,4.77,0,0,0,47.65,33c-.17.47-.34.94-.49,1.42s-.31.93-.49,1.39A4.52,4.52,0,0,1,46,37.07a3,3,0,0,1-.23.93,2.33,2.33,0,0,0-.19,1l-.07,0a.18.18,0,0,0-.11,0c-.09,0-.16.08-.19.23s-.11.19-.23.13c-.54,1.32-1.13,2.62-1.77,3.89a8.41,8.41,0,0,1-2.5,3,1.37,1.37,0,0,0-.53-.13,1.47,1.47,0,0,0-.89.33,1.4,1.4,0,0,1-.58.33,1.43,1.43,0,0,1-.86-.46,1.74,1.74,0,0,0-1-.51,6.09,6.09,0,0,1-.93-1,1.5,1.5,0,0,0-1.1-.6q-.49-.93-1-1.77c-.32-.56-.62-1.11-.91-1.66A12,12,0,0,1,32.14,39a10.05,10.05,0,0,1-.51-2.08.51.51,0,0,0,0-.17c0-.18-.06-.25-.19-.22s-.19-.06-.19-.27V36a2.11,2.11,0,0,0-.09-.64,1.49,1.49,0,0,1-.05-.64,5.49,5.49,0,0,1-.39-1,2.2,2.2,0,0,0-.49-.93v-.4a4.35,4.35,0,0,0,0-.51,1.23,1.23,0,0,0-.1-.44.41.41,0,0,0-.26-.24,13.39,13.39,0,0,0-.51-3.25c-.32-1.11-.6-2.18-.86-3.21A18.51,18.51,0,0,0,28.09,27,20.66,20.66,0,0,0,28,29.37v.75a3.42,3.42,0,0,0,.07.71.61.61,0,0,1-.3.31.39.39,0,0,0-.22.35,1.64,1.64,0,0,0,0,.44,2.26,2.26,0,0,1,0,.45c-.05.7-.12,1.38-.21,2-.14,1-.3,2-.49,2.94a16,16,0,0,0-.28,3,1.29,1.29,0,0,0,0,.25,2.27,2.27,0,0,1,0,.24,2.35,2.35,0,0,0-.59,1.55,12.33,12.33,0,0,1-.18,1.77c-.11.82-.25,1.64-.42,2.45s-.3,1.65-.42,2.5c-.07.48-.13.94-.17,1.4s-.1.92-.14,1.39a1.3,1.3,0,0,1-.23.66,1.49,1.49,0,0,0-.26.62,3.86,3.86,0,0,0,0,.69c0,.25,0,.48,0,.69a7.69,7.69,0,0,1-.07,1,1.51,1.51,0,0,1-.42.82,8.66,8.66,0,0,0,.31,2c.17.54.35,1.16.56,1.83h.88v.18a2.49,2.49,0,0,0,.12.8.44.44,0,0,0,.51.31,2.45,2.45,0,0,0,0,.44,1.93,1.93,0,0,0,.13.73,4.56,4.56,0,0,1,.19.73,6.9,6.9,0,0,1-1.51,2.17,3.21,3.21,0,0,1-2.2.71H22c-.12-.48-.26-.93-.42-1.38s-.33-.88-.48-1.32a13.63,13.63,0,0,1-.38-1.35,6.17,6.17,0,0,1-.16-1.44,1.15,1.15,0,0,1,0-.33,1.84,1.84,0,0,0,0-.33c0-.15-.05-.24-.14-.27s-.14-.18-.14-.44,0-.4,0-.58,0-.37,0-.57a23.28,23.28,0,0,1,.17-2.9c.12-1,.2-1.92.25-2.9a.94.94,0,0,0,.17-.57.89.89,0,0,1,.18-.58V51a8.54,8.54,0,0,1,.14-1.59c.09-.53.19-1,.31-1.55s.22-1,.32-1.55A9.49,9.49,0,0,0,22,44.72V44c0-.2.07-.3.22-.29s.24-.09.27-.33c0-.41.07-.82.08-1.21s0-.81.09-1.22c.12-.8.25-1.6.39-2.41a14.42,14.42,0,0,0,.21-2.46V36a2.09,2.09,0,0,1,.17-.55,2.1,2.1,0,0,0,.18-.82A1.58,1.58,0,0,0,23.5,34a.18.18,0,0,0,.14.05.18.18,0,0,0,.19-.11.62.62,0,0,1,.16-.2.7.7,0,0,1-.1-.36,2,2,0,0,1,.05-.42,1.42,1.42,0,0,0,0-.42.47.47,0,0,0-.24-.44A9.28,9.28,0,0,0,24.36,30c.13-.74.22-1.49.28-2.25s.11-1.55.16-2.33a13.17,13.17,0,0,1,.31-2.23,3.38,3.38,0,0,1-.08-.58,5.62,5.62,0,0,1,0-.57,1.69,1.69,0,0,0,0-.38.66.66,0,0,1,0-.37,1.11,1.11,0,0,1,0-.23l.07-.26a3.4,3.4,0,0,0,.09-.64c0-.22,0-.45.05-.69.05-.68.07-1.37.06-2.08s0-1.41.05-2.12a1.82,1.82,0,0,0-.21-.29.56.56,0,0,1-.14-.33,10.76,10.76,0,0,1,.61-1.17,2.4,2.4,0,0,1,.89-.87.54.54,0,0,0,.56.49A1.4,1.4,0,0,0,27.6,13a.77.77,0,0,0,.42-.36,2.74,2.74,0,0,0,1.21.25,1.73,1.73,0,0,1,1.14.37c.07.45.16.9.28,1.38a5,5,0,0,0,.49,1.28c0,.38.09.85.14,1.39s.09,1.11.14,1.68a13.58,13.58,0,0,0,.21,1.64A4.09,4.09,0,0,0,32,21.85a10.83,10.83,0,0,0,.21,1.59q.18.79.39,1.53c.14.48.26.93.37,1.35a4.47,4.47,0,0,1,.15,1,1,1,0,0,1-.08.47,1.09,1.09,0,0,0-.16.37,2.49,2.49,0,0,0,.38.82c.17.22.34.48.53.78a37.15,37.15,0,0,0,1.37,4.91,32,32,0,0,0,2,4.6.86.86,0,0,1,.5.22.68.68,0,0,0,.62.09v.31a1,1,0,0,0,.14.62,1.12,1.12,0,0,0,.73.26.86.86,0,0,0,.72-.33,6,6,0,0,0,.51-.77c.16-.3.33-.58.49-.84a1.17,1.17,0,0,1,.66-.54v-.08a1.21,1.21,0,0,1,.13-.6,1.23,1.23,0,0,0,.12-.55,2.45,2.45,0,0,0,.6-.89c.14-.35.26-.71.38-1.08a9,9,0,0,1,.4-1,2.16,2.16,0,0,1,.62-.8A23.32,23.32,0,0,1,45,29.72c.46-1.09,1-2.2,1.47-3.32a1,1,0,0,0,0-.28,1.59,1.59,0,0,1,0-.29,3.55,3.55,0,0,1,.07-.4c.11-.29.22-.57.31-.84a6.56,6.56,0,0,0,.25-.88c.23-.92.45-1.82.65-2.7a10.56,10.56,0,0,1,.89-2.53v-1.1A14.83,14.83,0,0,0,49.47,14c.18-1.18.39-2.33.65-3.45a4.76,4.76,0,0,1,.26-1,1.66,1.66,0,0,1,.48-.73,1.44,1.44,0,0,1-.11-.53,2.11,2.11,0,0,1,.09-.64c.06-.19.11-.39.16-.6a2.53,2.53,0,0,1-.11-.8,2.52,2.52,0,0,1,.28-1.17A1.4,1.4,0,0,1,52,4.37a1.51,1.51,0,0,1,.6.44c.16.21.32.42.47.65a2.29,2.29,0,0,0,.49.53.81.81,0,0,0,.68.11,5.41,5.41,0,0,1,.39,1.39A10.41,10.41,0,0,1,54.74,9a15.22,15.22,0,0,1-.14,2.1,13.39,13.39,0,0,0-.1,2.19,6.88,6.88,0,0,0-.4,1.53c-.09.55-.16,1.1-.23,1.66s-.15,1.11-.25,1.64a5.18,5.18,0,0,1-.49,1.5c-.07,1.33-.14,2.63-.23,3.89s-.2,2.54-.36,3.81l-.32,2.52c0,.21-.09.44-.14.69a3.27,3.27,0,0,0-.07.64,3.56,3.56,0,0,0,0,.55.57.57,0,0,0,.21.42,3.23,3.23,0,0,0-.35,1.06c-.07.42-.14.86-.21,1.33l-.18,1.37a4.8,4.8,0,0,1-.28,1.2v.48a14.07,14.07,0,0,1-.49,3.63v.22c0,.15,0,.27,0,.38s0,.23,0,.37a.73.73,0,0,0,.14.49c-.19.77-.37,1.56-.53,2.37a22.13,22.13,0,0,0-.35,2.5c-.07,1.15-.08,2.32,0,3.51a11.84,11.84,0,0,1-.35,3.48,9.79,9.79,0,0,1,.29,1.72L50,58.08a16.52,16.52,0,0,0,.22,1.79,3.16,3.16,0,0,0,.62,1.44.91.91,0,0,1,0,.27.88.88,0,0,1-.14.53,2.28,2.28,0,0,0,.25.75c.11.2.23.4.35.6a3.44,3.44,0,0,1,.29.64,2.48,2.48,0,0,1,.13.88,1.71,1.71,0,0,0,.87.75l1.21.54a3.68,3.68,0,0,1,1.07.68A1.59,1.59,0,0,1,55.37,68.17Z" transform="translate(-20.32 -4.37)"/><path class="cls-1" d="M79.43,28.57v.18a.42.42,0,0,0-.24.44,3.14,3.14,0,0,1-.81.33,3.74,3.74,0,0,0-.8.33c-.26,0-.52-.05-.79-.06s-.53,0-.79,0c-.7,0-1.4,0-2.1.08a12.27,12.27,0,0,1-2.1,0,4.2,4.2,0,0,1-1.07.56,3.42,3.42,0,0,1-1.1.2,1.88,1.88,0,0,1-.74-.14,9,9,0,0,1-1.84.89c-.66.24-1.33.46-2,.68a20.08,20.08,0,0,0-1.94.76A5,5,0,0,0,61.47,34c0,.41-.08.82-.11,1.22s0,.79,0,1.17,0,.79.05,1.15a5,5,0,0,0,.23,1.06,1.45,1.45,0,0,0,.4.13,2.17,2.17,0,0,0,.4,0,.84.84,0,0,0,.35-.07.41.41,0,0,0,.25-.29,4.63,4.63,0,0,1,1.05-.06l1,0c.35,0,.69,0,1-.05a3.52,3.52,0,0,0,1-.22,5.5,5.5,0,0,1,1.1-.22l1.07-.09c.35,0,.71-.08,1.09-.15a3.45,3.45,0,0,0,1.15-.47,2.13,2.13,0,0,0,.93.23,5.64,5.64,0,0,1,.93.08,2,2,0,0,1,.4.49,1.15,1.15,0,0,1,.16.62,2.54,2.54,0,0,1-.35,1.24A9.23,9.23,0,0,0,73.06,41h-.38a4.7,4.7,0,0,0-1.63.29c-.53.19-1,.41-1.58.66a16.51,16.51,0,0,1-1.58.66,4.47,4.47,0,0,1-1.62.29c-.1,0-.15.07-.16.2a.52.52,0,0,1-.09.29,2.21,2.21,0,0,0-.52-.05,5.64,5.64,0,0,0-1.55.22,5.1,5.1,0,0,1-1.5.23,3,3,0,0,1-.42,0,3,3,0,0,1-.42-.06.89.89,0,0,1-.46.46,1.51,1.51,0,0,0-.52.38,4.85,4.85,0,0,0-.13,1l0,1.17a9.77,9.77,0,0,1-.09,1.13,1.93,1.93,0,0,1-.28.84c0,.15.12.2.28.16s.25,0,.25.29a6.48,6.48,0,0,1-.07.84,5.22,5.22,0,0,0-.07.88,12.51,12.51,0,0,0,.15,1.84,9.07,9.07,0,0,0,.49,1.83,4.07,4.07,0,0,0,.9,1.4,1.9,1.9,0,0,0,1.4.55,2.16,2.16,0,0,0,1.05-.27,1.94,1.94,0,0,0,.81-.88l.17,0a.75.75,0,0,1,.26,0,.77.77,0,0,0,.27,0,.9.9,0,0,0,.54-.33c.22-.22.47-.48.73-.77s.55-.59.83-.87a3,3,0,0,1,.8-.59c.17-.42.32-.83.48-1.24a2,2,0,0,1,.68-1V49.23a6.44,6.44,0,0,1,.75-.88,2.6,2.6,0,0,0,.61-1,1.81,1.81,0,0,0,.34.13,1.14,1.14,0,0,0,.33,0,1.64,1.64,0,0,0,.37,0,1.4,1.4,0,0,0,.36-.13,4.15,4.15,0,0,1,.44,1.08,6.57,6.57,0,0,0,.41,1.13c-.21.53-.46,1.17-.74,1.9s-.58,1.48-.91,2.22-.67,1.43-1,2.1a7.06,7.06,0,0,1-1.07,1.52,1.27,1.27,0,0,1-.46.31c-.25.24-.49.47-.7.69a4.73,4.73,0,0,0-.59.77,8.87,8.87,0,0,0-2,1.07c-.62.44-1.23.87-1.84,1.28a2.94,2.94,0,0,0-.91-.13,5.93,5.93,0,0,0-.84.06,5.17,5.17,0,0,1-.91.07.63.63,0,0,0-.4-.29c-.18,0-.24-.2-.19-.46a3,3,0,0,1-1.93-.82A6.55,6.55,0,0,1,58,58a11.8,11.8,0,0,1-.82-2.3c-.22-.83-.44-1.63-.67-2.39v-.14c0-.14,0-.23.14-.26s.14-.12.14-.27a.17.17,0,0,0,0-.13c-.07-.32-.12-.6-.17-.84a4.19,4.19,0,0,1-.07-.84,12.68,12.68,0,0,1,.07-1.39,13,13,0,0,0,.07-1.4,5.1,5.1,0,0,0-.14-1.24,2,2,0,0,0,.23-.59,4.88,4.88,0,0,0,.12-.78c0-.26,0-.53,0-.79A3.51,3.51,0,0,1,57,44c-.09-.33-.18-.61-.25-.87a3.39,3.39,0,0,1-.1-.9v-.31a12.06,12.06,0,0,0,.59-1.55c.17-.53.34-1.08.53-1.64v-.13c0-.86,0-1.71-.07-2.57s-.07-1.71-.07-2.56V32.6a7.39,7.39,0,0,1,0-.84,1.19,1.19,0,0,0,.42-.49,1.06,1.06,0,0,1,.42-.49h1.15l.21-.44a1.55,1.55,0,0,0,.14-.49,2.91,2.91,0,0,0,.75-.37A6.16,6.16,0,0,0,61.4,29l.89-.64a5.83,5.83,0,0,1,.81-.49,5.36,5.36,0,0,1,.85-.33,8.37,8.37,0,0,1,1-.22.44.44,0,0,0,.37-.13,1.74,1.74,0,0,1,.27-.31q.42.09.84.15a4.76,4.76,0,0,0,.84.07,3.3,3.3,0,0,0,1.57-.4c.7,0,1.4,0,2.09,0s1.38-.05,2.08-.05,1.21,0,1.82.09a12,12,0,0,1,1.79.31,1.75,1.75,0,0,1,.7-.13,3.27,3.27,0,0,1,.86.11,1.88,1.88,0,0,0,.85,0,2.35,2.35,0,0,0,.2.82A1.86,1.86,0,0,1,79.43,28.57Z" transform="translate(-20.32 -4.37)"/><path class="cls-1" d="M100.8,27.64a5.53,5.53,0,0,1-.19.91,2.35,2.35,0,0,0-.06,1,.8.8,0,0,0-.54.29,2,2,0,0,0-.31.56c-.09.2-.17.42-.25.64a2.51,2.51,0,0,1-.3.59,21.82,21.82,0,0,1,.32,3.23c0,1.1.08,2.17.17,3.23a40.3,40.3,0,0,0,.55,4,22.12,22.12,0,0,1,.36,4c0,.41,0,.8,0,1.15s0,.72,0,1.11c0,.23,0,.48,0,.73s0,.49,0,.73a12.36,12.36,0,0,1-.26,2.56c-.17.86-.31,1.71-.4,2.57A5.5,5.5,0,0,0,99.17,56c-.2.38-.4.74-.61,1.06a4.43,4.43,0,0,1-.74.87,2.15,2.15,0,0,1-1,.5,1.11,1.11,0,0,1-.4.67,1.77,1.77,0,0,0-.51.62h-.07a3.5,3.5,0,0,1-1.51-.31,7.59,7.59,0,0,1-1.17-.71L92,57.86a4.66,4.66,0,0,0-1.3-.71,15.55,15.55,0,0,1-1.78-2.23,13,13,0,0,0-1.83-2.19,4.82,4.82,0,0,0-.64-1.46,12.3,12.3,0,0,1-.79-1.33,2.61,2.61,0,0,1-.26-.58c-.06-.17-.14-.38-.23-.61a.8.8,0,0,0-.33-.49,1.84,1.84,0,0,1-.41-.31,11.27,11.27,0,0,0-.8-2.52,15.38,15.38,0,0,0-1.23-2.21,5.64,5.64,0,0,0-.33,1c-.08.37-.16.74-.23,1.11s-.16.74-.26,1.11a5,5,0,0,1-.4,1v.14c0,.14,0,.23.14.26s.14.12.14.27a.19.19,0,0,1,0,.08.29.29,0,0,0,0,.09,1.11,1.11,0,0,0-.26.45.44.44,0,0,1-.37.31,3.15,3.15,0,0,1,0,.44v.4a14.75,14.75,0,0,1-.22,2.56,15.17,15.17,0,0,0-.23,2.61v.58a3.4,3.4,0,0,0,0,.57,1.83,1.83,0,0,0,.21.53,1.11,1.11,0,0,1,.14.49.87.87,0,0,1-.21.57c.16.15.35.31.56.49a4,4,0,0,1,.57.6,3.49,3.49,0,0,1,.44.71,1.86,1.86,0,0,1,.18.82,1.28,1.28,0,0,1-.39,1.06A2.92,2.92,0,0,1,81,62c-.36.12-.73.23-1.12.34a2,2,0,0,0-1,.55H78.8a.73.73,0,0,1-.63-.31.7.7,0,0,0-.63-.31,10.75,10.75,0,0,1-.91-3.08,23.27,23.27,0,0,1-.24-3.25,27.06,27.06,0,0,1,.26-3.8c.18-1.27.39-2.52.63-3.76s.51-2.47.81-3.7.56-2.45.82-3.69l0-.13a.48.48,0,0,0-.08-.31.37.37,0,0,1-.09-.27q0-.09,0-.09c.07-.29.15-.57.23-.84a5.22,5.22,0,0,0,.19-.88q.21-1.24.3-2.55c.06-.87.09-1.73.11-2.58s0-1.72.07-2.59.11-1.74.22-2.59a7.81,7.81,0,0,0,.53-.75,2.64,2.64,0,0,1,.63-.71,6.27,6.27,0,0,1,1.4.26,4.4,4.4,0,0,1,1.33.71,27.85,27.85,0,0,1,.58,3.81,35.45,35.45,0,0,0,.54,3.8v.13c0,.15.07.22.2.2a.29.29,0,0,1,.29.16.94.94,0,0,0-.08.31,2.06,2.06,0,0,0,0,.35v.75c0,.24.1.49.17.76a.61.61,0,0,0,.46.48A15.86,15.86,0,0,0,86.47,41c.24.8.51,1.57.81,2.3s.63,1.47,1,2.19l1.09,2.28a8.68,8.68,0,0,1,1.5,1.93c.42.72.85,1.41,1.28,2.08a8.91,8.91,0,0,0,1.47,1.74,3.82,3.82,0,0,0,2.15.93A1,1,0,0,0,96,54l.18-.62a5,5,0,0,1,.22-.56.88.88,0,0,1,.37-.37c0-.83.1-1.67.16-2.52a10.64,10.64,0,0,1,.44-2.44,2.33,2.33,0,0,1-.18-1,7.3,7.3,0,0,1,0-.84,5.39,5.39,0,0,0,.06-.8A3,3,0,0,0,97,43.48c0-.21,0-.42,0-.64a1.51,1.51,0,0,1,.21-.64,13.3,13.3,0,0,1-.44-1.86,13,13,0,0,1-.15-2,7.28,7.28,0,0,1,.1-1.2,7.07,7.07,0,0,1-.28-1.54l-.14-1.82c0-.62-.12-1.19-.21-1.72a2.81,2.81,0,0,0-.53-1.29,1.94,1.94,0,0,0,.22-.93,6.55,6.55,0,0,0-.22-1.68,7,7,0,0,1-.21-1.68,4.19,4.19,0,0,1,.21-1.24,11,11,0,0,1,1.53.2,6.93,6.93,0,0,0,1.49.16,2,2,0,0,0,.49.57,5.19,5.19,0,0,0,.59.42l.62.42A1.67,1.67,0,0,1,100.8,27.64Z" transform="translate(-20.32 -4.37)"/><path class="cls-1" d="M126.12,49.54a2.94,2.94,0,0,1-.45,1.11,4.51,4.51,0,0,1-.72.79,7.76,7.76,0,0,1-.86.65,7.57,7.57,0,0,0-.88.64h-.45a2.81,2.81,0,0,1-2.26-.91,6.11,6.11,0,0,1-1.21-2.26,16.77,16.77,0,0,1-.61-2.89c-.13-1-.29-2-.47-2.84a4,4,0,0,0-.71,1c-.18.4-.37.79-.57,1.18a7.61,7.61,0,0,1-.67,1.06,1.86,1.86,0,0,1-1,.66c-.07.21-.15.42-.23.62a2.85,2.85,0,0,0-.16.67,7.77,7.77,0,0,0-1.4,1.23c-.42.48-.84,1-1.26,1.46s-.85,1-1.28,1.44a5.62,5.62,0,0,1-1.45,1.13s-.07,0-.14,0a1.32,1.32,0,0,0-.77.24,1.32,1.32,0,0,1-.77.24,1,1,0,0,1-.51-.13,4,4,0,0,1-.45-.31,1.78,1.78,0,0,0-.48-.27,1.13,1.13,0,0,0-.52,0,6.57,6.57,0,0,0-.93-1.48,3.1,3.1,0,0,1-.72-1.57,5.56,5.56,0,0,1-.09-.82,8.6,8.6,0,0,0-.08-.86c-.07-.45-.17-.9-.28-1.35a12.84,12.84,0,0,1-.28-1.4c.11-.79.22-1.67.33-2.63s.23-1.92.38-2.87a22.58,22.58,0,0,1,.63-2.75,8.38,8.38,0,0,1,1-2.23l0-.31a4.12,4.12,0,0,1,.21-1.33c.14-.41.29-.81.46-1.19s.3-.77.42-1.15a3,3,0,0,0,.07-1.29,5.92,5.92,0,0,1,.87-.44,2.59,2.59,0,0,1,.95-.18,2,2,0,0,1,.84.18.32.32,0,0,0,.24.44v.14a9,9,0,0,1-.17,1.81c-.12.59-.26,1.17-.42,1.75s-.32,1.15-.47,1.72A11.75,11.75,0,0,0,108.5,38a.31.31,0,0,0-.19.18l-.09.26a.45.45,0,0,1-.1.22.26.26,0,0,1-.21.09c-.14,1-.29,2.06-.44,3.08a20.94,20.94,0,0,0-.23,3.07,13.72,13.72,0,0,0,.14,1.9,7.35,7.35,0,0,0,.53,1.86l.14,0a.82.82,0,0,1,.61.22,3.21,3.21,0,0,0,.61.44,2.32,2.32,0,0,0,.53-.24.55.55,0,0,0,.21-.55,1.5,1.5,0,0,0,.77-.29,3.24,3.24,0,0,0,.56-.55l.53-.62a1.5,1.5,0,0,1,.66-.45.6.6,0,0,1,.11-.39l.21-.27a.8.8,0,0,0,.15-.29,1.08,1.08,0,0,0,0-.46,1.05,1.05,0,0,0,.65-.27,2.72,2.72,0,0,0,.42-.51c.13-.19.25-.39.37-.59a1.65,1.65,0,0,1,.45-.53c.17-.45.39-1,.69-1.77s.58-1.51.87-2.3.55-1.56.77-2.28a6.31,6.31,0,0,0,.33-1.66.87.87,0,0,0-.08-.4.67.67,0,0,1-.06-.4v-.13a6.83,6.83,0,0,0,.51-1c.15-.36.32-.7.49-1a6.5,6.5,0,0,1,.58-.89,2.19,2.19,0,0,1,.81-.62,5.13,5.13,0,0,0,1.13.31,3.61,3.61,0,0,1,1.11.36c0,.73.08,1.59.17,2.56a11.43,11.43,0,0,0,.49,2.48c0,.38,0,.75,0,1.11s0,.7,0,1.06c0,.59,0,1.19,0,1.81A11.14,11.14,0,0,0,123,42.2a3.88,3.88,0,0,0-.25,1.41,7.14,7.14,0,0,0,.25,1.93,12.35,12.35,0,0,1,.35,1.92,1.35,1.35,0,0,0,1.19.8.85.85,0,0,0,.3,0,.9.9,0,0,0,.26-.13q.29.41.51.78A3.23,3.23,0,0,0,126.12,49.54Z" transform="translate(-20.32 -4.37)"/><path class="cls-1" d="M183.31,49.19a2.24,2.24,0,0,1-.24,1,1.62,1.62,0,0,0-.14,1.08,1.35,1.35,0,0,1-.37.49.69.69,0,0,0-.16.66,6.43,6.43,0,0,0-1.35,1.22,14.28,14.28,0,0,1-1.31,1.39,3.55,3.55,0,0,1-.72.56,4.83,4.83,0,0,0-.71.46l-.88.71-1.21.79a4.61,4.61,0,0,0-1.1,1,3.35,3.35,0,0,0-1.51.51c-.51.31-1,.58-1.47.82a3.14,3.14,0,0,1-.56.2,1.69,1.69,0,0,0-.56.24l-.56.31a11.85,11.85,0,0,1-1.16.64,2.72,2.72,0,0,1-1.19.33,1.36,1.36,0,0,0-.52.62,13.45,13.45,0,0,1-2.38.76,9.73,9.73,0,0,0-2.39.84,4.21,4.21,0,0,0-.78.59,1.13,1.13,0,0,1-.86.34,1.52,1.52,0,0,0-.14.53,4.76,4.76,0,0,1-.11.62h-.1q-.15,0-.12-.18c0-.12,0-.18-.13-.18a.18.18,0,0,0-.14.05l-.85.22a4.16,4.16,0,0,1-.9.09,6.86,6.86,0,0,1-.89-.09,3.17,3.17,0,0,1-.89-.23,1,1,0,0,1-.35-.49,7.51,7.51,0,0,1-.27-.76c-.08-.27-.15-.54-.21-.82l-.15-.7a1.89,1.89,0,0,1,.35-.8,2.38,2.38,0,0,0,.38-.8,4.75,4.75,0,0,0,.63-.14,1.5,1.5,0,0,1,.63,0c.73-.27,1.46-.52,2.19-.77s1.47-.51,2.19-.77,1.44-.56,2.14-.88a12.36,12.36,0,0,0,2-1.19h.73a7.46,7.46,0,0,1,1.4-.75,2.65,2.65,0,0,0,1.26-1,17.83,17.83,0,0,0,2.42-.83,5,5,0,0,0,2.1-1.68,2.29,2.29,0,0,0,.91-.33c.26-.16.5-.33.74-.51l.7-.57a2.61,2.61,0,0,1,.8-.49,6.73,6.73,0,0,0,.53-.75,2.12,2.12,0,0,1,.6-.66,1.6,1.6,0,0,0-.56-1.07,3.6,3.6,0,0,1-.81-.84h-.77a7.3,7.3,0,0,0-1.94-1.08c-.69-.25-1.38-.52-2.05-.82a.34.34,0,0,0-.18,0,.28.28,0,0,0-.3.22c0,.15-.13.2-.29.17a1.62,1.62,0,0,0-.67-.33,4.35,4.35,0,0,0-.74-.06,7.73,7.73,0,0,0-1,.06,6,6,0,0,1-1,.07,2.7,2.7,0,0,1-.49,0,1.15,1.15,0,0,1-.49-.23H167c-.49,0-1,0-1.45.07s-.95.07-1.42.07c-.26,0-.5,0-.73,0a3.49,3.49,0,0,1-.71-.11,4.73,4.73,0,0,1-1.57.62,16,16,0,0,1-1.73.27l-1.77.15a12.33,12.33,0,0,0-1.68.25l-.41-.07-.37,0-.36,0-.37.07a2.66,2.66,0,0,0-1.1-.91,5,5,0,0,0-1.28-.38,5.67,5.67,0,0,1-.72-1.52,8.72,8.72,0,0,1-.3-1.75h.14c.17,0,.24-.1.23-.31a.75.75,0,0,1,.16-.53.93.93,0,0,1,.47-.38,5.89,5.89,0,0,0,.58-.24,3.4,3.4,0,0,0,.54-.33,1.2,1.2,0,0,0,.4-.64H154a1.62,1.62,0,0,1,.3,0,.41.41,0,0,1,.26.15,1.52,1.52,0,0,1,.35-.31c.14-.08.27-.17.4-.26a1.67,1.67,0,0,0,.34-.31,1,1,0,0,0,.17-.53.16.16,0,0,0,.18.13.43.43,0,0,0,.26-.09.34.34,0,0,1,.3,0c.11-.41.31-.64.59-.67a1.47,1.47,0,0,0,.77-.3,2.64,2.64,0,0,0,.46-.43c.14-.16.29-.31.45-.46l2.1-2,3.23-3.1q1.6-1.55,3.29-2.88a.77.77,0,0,1,.21-.4c.09-.08.18-.18.28-.28a1.85,1.85,0,0,0,.23-.34,1.14,1.14,0,0,0,.05-.53,1.31,1.31,0,0,0,.75-.48,5,5,0,0,0,.47-.78c.14-.28.29-.56.44-.84a1.59,1.59,0,0,1,.62-.64,1.36,1.36,0,0,1,0-.4,5.49,5.49,0,0,1,0-.7,1.39,1.39,0,0,1,.26-.62,2.31,2.31,0,0,0-1.08-1.35c-.51-.28-1-.53-1.47-.73h-.11c-.11,0-.18.06-.19.2a.34.34,0,0,1-.19.28,4.52,4.52,0,0,0-1.26-.17,7.19,7.19,0,0,0-1.39.13,4.25,4.25,0,0,1-1.38,0c-.07.12-.15.24-.23.36a1.7,1.7,0,0,1-.29.31,6.3,6.3,0,0,0-1.48.26l-1.47.44-.8.23a.5.5,0,0,0-.25.31,3.12,3.12,0,0,0-.1.48.33.33,0,0,1-.27-.22.38.38,0,0,0-.26-.26,7.91,7.91,0,0,1-1.73,1,4.79,4.79,0,0,0-1.67,1.24.8.8,0,0,0-.7-.35,1.53,1.53,0,0,0-.84.31,1.26,1.26,0,0,0-.56.79,2.18,2.18,0,0,0-.52-.08.87.87,0,0,0-.65.26q-.25.27-.51.6c-.16.22-.34.43-.52.64a1.05,1.05,0,0,1-.7.35c0,.15,0,.31,0,.47a4.18,4.18,0,0,1,0,.51c0,1.32-.06,2.64-.17,4s-.18,2.63-.18,4a8.12,8.12,0,0,0,0,.86c0,.28,0,.58,0,.91a2.18,2.18,0,0,1-.16.57c-.1.3-.18.52-.22.66a3.29,3.29,0,0,1,.12,1,2.28,2.28,0,0,0,.16.93,1.4,1.4,0,0,0-.32,1c0,.18,0,.35,0,.53s0,.35,0,.53v.53c-.07.59-.12,1.19-.14,1.79s0,1.21,0,1.8c0,.26,0,.71,0,1.35s0,1.34.09,2.12.11,1.59.21,2.41a21.88,21.88,0,0,0,.36,2.28,7.29,7.29,0,0,0,.58,1.7c.23.44.52.67.84.67a1.12,1.12,0,0,0,.27,0,.2.2,0,0,0,.15-.22.75.75,0,0,0-.05-.31.75.75,0,0,1-.05-.31l0-.09a1.49,1.49,0,0,0,.62.22l.68.09a2.89,2.89,0,0,1,.66.16,1.15,1.15,0,0,1,.56.46,2.12,2.12,0,0,0-.14.75,2.39,2.39,0,0,0,.21,1,3.33,3.33,0,0,1,.28,1,8.39,8.39,0,0,0-1.2.6l-1.07.62a11.58,11.58,0,0,1-1.12.53,5.4,5.4,0,0,1-1.37.33c-.33-.27-.61-.5-.84-.71a1.84,1.84,0,0,0-.94-.4,16.37,16.37,0,0,1-1.51-3.47,28.43,28.43,0,0,1-.93-4,42,42,0,0,1-.45-4.18c-.09-1.4-.13-2.73-.13-4s0-2.71.13-4.05.19-2.69.33-4c0-.41.09-.83.14-1.26s.09-.85.14-1.26a3.19,3.19,0,0,0,.12-.51,2.43,2.43,0,0,0,0-.51q0-.75,0-1.5c0-.5,0-1,0-1.46,0-.74,0-1.49.11-2.26a4.93,4.93,0,0,1,.12-.57,2.64,2.64,0,0,0,.09-.62.68.68,0,0,0-.14-.49,1.18,1.18,0,0,1-.25-.44q.1-.45.18-.87a4.83,4.83,0,0,0,.07-.86,3.81,3.81,0,0,0-.25-1.46,15.34,15.34,0,0,1,.53-2.25,3,3,0,0,1,1.23-1.69,11.83,11.83,0,0,1,1.41.18,2.14,2.14,0,0,1,1.25.75,1.32,1.32,0,0,1,.56-.22l.66-.09a2.65,2.65,0,0,0,.63-.15,1,1,0,0,0,.49-.47,10.22,10.22,0,0,0,1.51-.5,6.63,6.63,0,0,0,1.4-.78h.77a1.35,1.35,0,0,1,.56-.31l.67-.22.64-.27a1,1,0,0,0,.48-.44h.14a3.06,3.06,0,0,0,1.57-.44c.52-.29,1-.56,1.51-.8.12-.06.3-.16.54-.31a1.47,1.47,0,0,1,.51-.22,8.16,8.16,0,0,1,1-.11,4.16,4.16,0,0,0,1-.15c.75-.15,1.49-.32,2.23-.51a8.78,8.78,0,0,1,2.22-.29l.72,0,.71.07a.55.55,0,0,0,.18.29l.26.2a1.06,1.06,0,0,1,.23.24.6.6,0,0,1,.07.42c.05.06.09.09.14.09s.13-.05.19-.13a.31.31,0,0,1,.27-.14h.17c.3.42.6.81.89,1.17a3.41,3.41,0,0,0,1.11.91c.18.89.41,1.76.66,2.61a9.42,9.42,0,0,1,.39,2.75,7,7,0,0,1-.21,1.72,1.7,1.7,0,0,0-.7,1c-.14.45-.27.87-.39,1.29a5.42,5.42,0,0,0-1.64,1.63c-.45.68-.9,1.36-1.37,2h-.56a.23.23,0,0,0-.21.13l-.32.44a9,9,0,0,1-.68.71,2.24,2.24,0,0,0-.54.93,17.38,17.38,0,0,0-2.08,1.68,27,27,0,0,0-1.91,2,8,8,0,0,0-.77.91,8.44,8.44,0,0,1-.77.86,1.92,1.92,0,0,1-.48.37,2.45,2.45,0,0,0-.47.38c-.3.3-.58.6-.84.91a11.09,11.09,0,0,1-.81.86c1-.06,2.12-.1,3.19-.11l3.19-.07c.53,0,1.06,0,1.57-.06s1-.07,1.58-.07a.4.4,0,0,1,.24.07l.25.11a7,7,0,0,1,1.05.31c1.12.26,2.24.5,3.36.71a14.76,14.76,0,0,1,3.3,1,2.09,2.09,0,0,1,.68.49c.15.18.42.22.82.13a3.87,3.87,0,0,0,1.07,1,8.79,8.79,0,0,0,1.17.62c.31.59.59,1.15.86,1.69A4.13,4.13,0,0,1,183.31,49.19Z" transform="translate(-20.32 -4.37)"/><path class="cls-1" d="M207,49.54a2.94,2.94,0,0,1-.45,1.11,4.51,4.51,0,0,1-.72.79,6.92,6.92,0,0,1-.86.65,7.47,7.47,0,0,0-.87.64h-.46a2.83,2.83,0,0,1-2.26-.91,6.26,6.26,0,0,1-1.21-2.26,16.77,16.77,0,0,1-.61-2.89c-.13-1-.29-2-.47-2.84a4,4,0,0,0-.7,1c-.19.4-.38.79-.58,1.18a7.61,7.61,0,0,1-.67,1.06,1.82,1.82,0,0,1-1,.66,6.56,6.56,0,0,1-.23.62,2.43,2.43,0,0,0-.15.67,7.44,7.44,0,0,0-1.4,1.23c-.42.48-.85,1-1.27,1.46s-.84,1-1.27,1.44a5.84,5.84,0,0,1-1.46,1.13s-.07,0-.14,0a1.35,1.35,0,0,0-.77.24,1.32,1.32,0,0,1-.77.24,1,1,0,0,1-.51-.13,4,4,0,0,1-.45-.31,1.73,1.73,0,0,0-.47-.27,1.17,1.17,0,0,0-.53,0,5.93,5.93,0,0,0-.93-1.48,3.28,3.28,0,0,1-.72-1.57,7.34,7.34,0,0,1-.08-.82c0-.28,0-.57-.09-.86a13,13,0,0,0-.28-1.35,12.84,12.84,0,0,1-.28-1.4c.12-.79.23-1.67.33-2.63S185,42,185.12,41a19.38,19.38,0,0,1,.63-2.75,8.37,8.37,0,0,1,1-2.23l0-.31a4.12,4.12,0,0,1,.21-1.33c.14-.41.29-.81.45-1.19s.3-.77.42-1.15a2.89,2.89,0,0,0,.07-1.29,5.56,5.56,0,0,1,.88-.44,2.53,2.53,0,0,1,.94-.18,1.92,1.92,0,0,1,.84.18.34.34,0,0,0,.25.44v.14a9,9,0,0,1-.18,1.81,17.8,17.8,0,0,1-.42,1.75c-.16.57-.32,1.15-.47,1.72a13.15,13.15,0,0,0-.33,1.75.3.3,0,0,0-.2.18,2.58,2.58,0,0,0-.08.26.57.57,0,0,1-.11.22.26.26,0,0,1-.21.09c-.14,1-.28,2.06-.44,3.08a20.93,20.93,0,0,0-.22,3.07,12.33,12.33,0,0,0,.14,1.9,7,7,0,0,0,.52,1.86l.14,0a.82.82,0,0,1,.61.22,3.32,3.32,0,0,0,.62.44,2.45,2.45,0,0,0,.52-.24.52.52,0,0,0,.21-.55,1.47,1.47,0,0,0,.77-.29,3.24,3.24,0,0,0,.56-.55l.53-.62a1.62,1.62,0,0,1,.66-.45.6.6,0,0,1,.11-.39l.21-.27a1,1,0,0,0,.16-.29,1.28,1.28,0,0,0,0-.46,1,1,0,0,0,.64-.27,2.72,2.72,0,0,0,.42-.51c.13-.19.25-.39.37-.59a1.68,1.68,0,0,1,.46-.53c.16-.45.39-1,.68-1.77s.58-1.51.88-2.3.54-1.56.77-2.28a6.31,6.31,0,0,0,.33-1.66.87.87,0,0,0-.09-.4.6.6,0,0,1,0-.4v-.13a9.77,9.77,0,0,0,.51-1,9.63,9.63,0,0,1,.49-1,5.65,5.65,0,0,1,.57-.89,2.19,2.19,0,0,1,.81-.62,5.07,5.07,0,0,0,1.14.31,3.64,3.64,0,0,1,1.1.36c0,.73.08,1.59.18,2.56a10.35,10.35,0,0,0,.49,2.48c0,.38,0,.75,0,1.11s0,.7,0,1.06c0,.59,0,1.19,0,1.81a11.14,11.14,0,0,0,.23,1.73,4.09,4.09,0,0,0-.24,1.41,7.56,7.56,0,0,0,.24,1.93,12.35,12.35,0,0,1,.35,1.92,1.35,1.35,0,0,0,1.19.8.85.85,0,0,0,.3,0,.9.9,0,0,0,.26-.13q.28.41.51.78A3.23,3.23,0,0,0,207,49.54Z" transform="translate(-20.32 -4.37)"/><path class="cls-1" d="M215.75,50.65a3.12,3.12,0,0,1-.43.64,6.7,6.7,0,0,0-.45.6,1.11,1.11,0,0,1-.54.13l-.56,0a2,2,0,0,0-.49,0,.48.48,0,0,0-.37.2.68.68,0,0,1-.42-.34.63.63,0,0,0-.49-.28.45.45,0,0,0-.28,0,15.81,15.81,0,0,1-1-1.6l-.82-1.59c0-1.09-.09-2.2-.21-3.32,0-.26-.06-.53-.1-.79s-.09-.52-.11-.76a8.11,8.11,0,0,1,.05-.86c0-.28.07-.54.09-.77.09-.86.2-1.7.32-2.52s.22-1.67.31-2.53a20.57,20.57,0,0,0,.14-2.41,8.52,8.52,0,0,0-.31-2.36l0-.22a4.22,4.22,0,0,1,.16-.6,2.22,2.22,0,0,0,.12-.55.76.76,0,0,0-.17-.71.68.68,0,0,1,.35-.47c.16-.07.25-.24.28-.51a1,1,0,0,0,0-.35,5.72,5.72,0,0,1,.57-.24.9.9,0,0,1,.58,0,1.84,1.84,0,0,1,.81.38,6.61,6.61,0,0,1,.66.64,14.75,14.75,0,0,1,.46,4.49c-.07,1.58-.19,3.17-.35,4.76s-.27,3.15-.32,4.67a12.54,12.54,0,0,0,.56,4.22l.07.05c.12,0,.21,0,.28-.16a.24.24,0,0,1,.28-.15.5.5,0,0,0,.18.08,7.94,7.94,0,0,0,.45,1.69C215.25,49.59,215.49,50.12,215.75,50.65Z" transform="translate(-20.32 -4.37)"/><path class="cls-1" d="M238.16,45.34a.91.91,0,0,1-.28.73.79.79,0,0,0-.28.64,1,1,0,0,0,.14.44.67.67,0,0,0-.67.4c-.11.27-.23.56-.35.89h-.45a.47.47,0,0,0-.28.08.72.72,0,0,0-.19.25,4.82,4.82,0,0,0-.23.46,4.84,4.84,0,0,0-1.28.56c-.41.25-.81.51-1.19.79l-1.17.84a6.85,6.85,0,0,1-1.23.69,2.6,2.6,0,0,1-.91,1.06h-.11a.28.28,0,0,1-.29-.07.46.46,0,0,0-.3-.11.17.17,0,0,0-.14,0,3.59,3.59,0,0,1-3,.82,2.93,2.93,0,0,0-.67-.07.13.13,0,0,0-.14.09l-.07.17a.76.76,0,0,1-.09.18c0,.06-.12.09-.26.09a2.31,2.31,0,0,1-.77-.13,1.48,1.48,0,0,0-.81,0,7.61,7.61,0,0,1-1.26-1.1,5.45,5.45,0,0,1-.84-1.6,3.81,3.81,0,0,0-.47-.92,3.34,3.34,0,0,1-.44-1c0-.12-.06-.33-.1-.64s-.1-.64-.14-1-.09-.69-.13-1-.05-.55-.05-.67c0-.35,0-.7.05-1s.08-.68.13-1c.14-1.12.24-2.24.3-3.38a13.58,13.58,0,0,1,.57-3.3,7.55,7.55,0,0,1-.07-.92v-1a5.13,5.13,0,0,0-.17-1.41,3,3,0,0,0,.28-1.29c0-.53-.18-.84-.53-.93V31.8a2.06,2.06,0,0,0-.49-1.46,3.67,3.67,0,0,1,.62-2.32A5.33,5.33,0,0,1,222,26.67a.69.69,0,0,0,.11-.44l.45.17a1.06,1.06,0,0,0,.42.09,1.47,1.47,0,0,0,.64-.13.72.72,0,0,0,.54.64,2.4,2.4,0,0,1,.72.29v.57a6.57,6.57,0,0,0,.52,2.61,2.71,2.71,0,0,0-.17.76,6.51,6.51,0,0,0,0,.75c0,.35,0,.71,0,1.06s0,.69,0,1a6.32,6.32,0,0,1-.09,1.06,2,2,0,0,1-.4.93c0,.38,0,.82-.05,1.3s0,1-.07,1.49a13.86,13.86,0,0,1-.19,1.46,3.74,3.74,0,0,1-.42,1.15c0,.44-.05.89-.06,1.34s0,.9,0,1.31c0,.65,0,1.42.08,2.3a6.58,6.58,0,0,0,.48,2.21,1.05,1.05,0,0,0,.68.53,2.6,2.6,0,0,0,.82.18,2.25,2.25,0,0,0,.79-.15,1,1,0,0,0,.58-.56.37.37,0,0,1,.28.27.67.67,0,0,0,.24.35c1.33-.71,2.66-1.38,4-2a33.83,33.83,0,0,0,3.92-2.26,1,1,0,0,0,.59.18,2.74,2.74,0,0,0,.7-.09,2.86,2.86,0,0,1,.7-.09h.25A1.58,1.58,0,0,1,238.16,45.34Z" transform="translate(-20.32 -4.37)"/><path class="cls-1" d="M261.45,34.9a.58.58,0,0,1-.25.57A.56.56,0,0,0,261,36a.35.35,0,0,0,.07.23.37.37,0,0,1,.07.26v.18a20.06,20.06,0,0,1-1.21,4.47,20.59,20.59,0,0,1-1.84,3.49,23.5,23.5,0,0,1-2.36,3c-.88.94-1.82,1.93-2.82,3-.28.3-.57.59-.86.89a9.09,9.09,0,0,0-.82.93l-.77.93a2.23,2.23,0,0,1-.39.2l-.42.19c-.33.18-.67.39-1,.62a3.74,3.74,0,0,0-.93.89,2.55,2.55,0,0,0-1.19.26,10.41,10.41,0,0,0-1.09.71.48.48,0,0,1-.29-.09l-.27-.17a.65.65,0,0,0-.29-.11.81.81,0,0,0-.41.06,7.54,7.54,0,0,0-.91-1.5,2,2,0,0,0-1.33-.75,2.13,2.13,0,0,0-.49-1.18c-.26-.28-.51-.58-.77-.9a3.5,3.5,0,0,1-.1-.62,3.45,3.45,0,0,0-.14-.67,2,2,0,0,0-.28-.53.61.61,0,0,0-.49-.22c0-.18,0-.26.17-.26a.19.19,0,0,0,.21-.22,2,2,0,0,0-.07-.54,2,2,0,0,1-.07-.57,1.64,1.64,0,0,1,0-.4,2.59,2.59,0,0,1,.1-.4c-.07-.79-.1-1.6-.1-2.43a40.8,40.8,0,0,1,.26-4.71,43.17,43.17,0,0,0,.26-4.71q0-1.06-.09-2.13a14.31,14.31,0,0,0-.33-2.08c-.54.15-1.07.32-1.61.51a6.18,6.18,0,0,0-1.51.78A1.62,1.62,0,0,0,236,32a3.35,3.35,0,0,1-.86-.24,3.56,3.56,0,0,1-.24-1.29,4.28,4.28,0,0,1,.17-1.19l.35-1.15a8.05,8.05,0,0,0,1.67-.66,18.05,18.05,0,0,1,1.66-.8l.72-.22a4.58,4.58,0,0,0,.61-.22.71.71,0,0,0,.33-.51,1.87,1.87,0,0,1,.27-.64h.59a3.78,3.78,0,0,1,.46,0,1,1,0,0,1,.45.15,12.52,12.52,0,0,1,2.52-.51c.84-.07,1.71-.18,2.6-.33a2.82,2.82,0,0,0,.42,0l.59-.13.58-.16a2.19,2.19,0,0,1,.37-.07c.07,0,.1,0,.1.14h.6a9.24,9.24,0,0,1,2.94.48l2.87,1c.4.41.79.81,1.19,1.19a7.44,7.44,0,0,0,1.33,1,2.66,2.66,0,0,0,.55,1.13c.24.28.52.58.82.9a9.45,9.45,0,0,0,.47,1.22c.2.43.39.86.58,1.31s.35.87.49,1.3A4,4,0,0,1,261.45,34.9Zm-3.26.66c-.25-.68-.5-1.38-.73-2.12a9.81,9.81,0,0,0-.88-2,9.4,9.4,0,0,1-1.28-.56,1.79,1.79,0,0,1-.89-1.17.48.48,0,0,1-.24.05.75.75,0,0,1-.57-.31,1.07,1.07,0,0,0-.56-.4l-.75-.13a9.64,9.64,0,0,0-1-.14l-1-.09-.79,0-.58,0-.61.07c-.19,0-.3,0-.35.11a.65.65,0,0,1-.28.2.82.82,0,0,0-.38-.09h-.42a3.92,3.92,0,0,0-1.46.29A7.32,7.32,0,0,0,244,30v.18c0,.23.08.37.25.4a.34.34,0,0,1,.28.35l-.28,0c-.07,0-.11.13-.11.33a6,6,0,0,0,.09,1,6.32,6.32,0,0,1,.09,1.06,6.7,6.7,0,0,1-.07.93,1.61,1.61,0,0,1-.35.84,1.56,1.56,0,0,1,.35,1.06,3.44,3.44,0,0,1-.14.93,3.86,3.86,0,0,1-.35.84c0,1.24-.14,2.49-.28,3.76a34.25,34.25,0,0,0-.21,3.76,18,18,0,0,0,.09,1.82,12.09,12.09,0,0,0,.29,1.77,3.21,3.21,0,0,0,.83.75l.92.53v.13a.36.36,0,0,1-.14.27.45.45,0,0,0-.14.35c0,.12,0,.18.14.18A16.71,16.71,0,0,0,248,50a9.65,9.65,0,0,0,2.42-2,.28.28,0,0,1,.21-.13.58.58,0,0,1,.19,0l.23.09,0-.18a.89.89,0,0,1,.13-.48,2,2,0,0,1,.29-.4l.35-.4a2.46,2.46,0,0,0,.28-.44.66.66,0,0,0,.41-.36.44.44,0,0,1,.43-.26,1.07,1.07,0,0,1,.39-.73,1,1,0,0,0,.38-.73,5.46,5.46,0,0,0,1.25-1.2,14.55,14.55,0,0,0,1-1.5c.32-.53.62-1.08.9-1.66s.57-1.13.87-1.66v-.18a2.89,2.89,0,0,1,.2-1.15A4.86,4.86,0,0,0,258.19,35.56Z" transform="translate(-20.32 -4.37)"/><path class="cls-1" d="M285.16,28.57v.18a.42.42,0,0,0-.24.44,3.14,3.14,0,0,1-.81.33,4.05,4.05,0,0,0-.81.33c-.25,0-.51-.05-.78-.06s-.54,0-.79,0c-.7,0-1.4,0-2.1.08a12.27,12.27,0,0,1-2.1,0,4.37,4.37,0,0,1-1.07.56,3.53,3.53,0,0,1-1.11.2,1.83,1.83,0,0,1-.73-.14,9,9,0,0,1-1.84.89c-.67.24-1.34.46-2,.68s-1.33.48-1.95.76A5.09,5.09,0,0,0,267.19,34c0,.41-.08.82-.1,1.22s0,.79,0,1.17a10.39,10.39,0,0,0,.06,1.15,5,5,0,0,0,.22,1.06,1.52,1.52,0,0,0,.41.13,2.08,2.08,0,0,0,.4,0,.87.87,0,0,0,.35-.07.38.38,0,0,0,.24-.29,4.72,4.72,0,0,1,1.06-.06l1,0c.35,0,.69,0,1-.05a3.52,3.52,0,0,0,1-.22,5.5,5.5,0,0,1,1.1-.22l1.07-.09a10.75,10.75,0,0,0,1.08-.15,3.5,3.5,0,0,0,1.16-.47,2.06,2.06,0,0,0,.93.23,5.84,5.84,0,0,1,.93.08,2.32,2.32,0,0,1,.4.49,1.24,1.24,0,0,1,.16.62,2.54,2.54,0,0,1-.35,1.24,8,8,0,0,0-.56,1.15h-.39a4.79,4.79,0,0,0-1.63.29c-.52.19-1,.41-1.57.66s-1.05.47-1.58.66a4.52,4.52,0,0,1-1.63.29c-.09,0-.14.07-.16.2a.63.63,0,0,1-.08.29,2.3,2.3,0,0,0-.53-.05,5.56,5.56,0,0,0-1.54.22,5.12,5.12,0,0,1-1.51.23,3,3,0,0,1-.42,0l-.42-.06a.88.88,0,0,1-.45.46,1.54,1.54,0,0,0-.53.38,4.27,4.27,0,0,0-.12,1l0,1.17c0,.4-.05.78-.09,1.13a1.93,1.93,0,0,1-.28.84c0,.15.11.2.28.16s.24,0,.24.29a5.09,5.09,0,0,1-.07.84,6.52,6.52,0,0,0-.07.88,12.61,12.61,0,0,0,.16,1.84,9.07,9.07,0,0,0,.49,1.83,4.05,4.05,0,0,0,.89,1.4,1.92,1.92,0,0,0,1.41.55,2.16,2.16,0,0,0,1-.27,2,2,0,0,0,.8-.88l.18,0a.75.75,0,0,1,.26,0,.75.75,0,0,0,.26,0,.9.9,0,0,0,.54-.33c.23-.22.47-.48.74-.77s.54-.59.82-.87a2.85,2.85,0,0,1,.81-.59c.16-.42.32-.83.47-1.24a2.11,2.11,0,0,1,.68-1V49.23a7.29,7.29,0,0,1,.76-.88,2.6,2.6,0,0,0,.61-1,2,2,0,0,0,.33.13,1.27,1.27,0,0,0,.34,0,1.89,1.89,0,0,0,.73-.18,4.53,4.53,0,0,1,.44,1.08,6.55,6.55,0,0,0,.4,1.13c-.21.53-.45,1.17-.73,1.9s-.59,1.48-.91,2.22-.68,1.43-1,2.1a6.72,6.72,0,0,1-1.07,1.52,1.3,1.3,0,0,1-.45.31c-.26.24-.49.47-.7.69a5.41,5.41,0,0,0-.6.77,9,9,0,0,0-1.94,1.07c-.62.44-1.23.87-1.84,1.28a2.94,2.94,0,0,0-.91-.13,5.93,5.93,0,0,0-.84.06,5.17,5.17,0,0,1-.91.07.66.66,0,0,0-.4-.29c-.18,0-.24-.2-.2-.46a3,3,0,0,1-1.92-.82A6.57,6.57,0,0,1,263.67,58a12.49,12.49,0,0,1-.82-2.3c-.21-.83-.43-1.63-.66-2.39v-.14c0-.14,0-.23.14-.26s.14-.12.14-.27a.22.22,0,0,0,0-.13c-.07-.32-.13-.6-.17-.84a4.19,4.19,0,0,1-.07-.84,12.68,12.68,0,0,1,.07-1.39c0-.46.07-.93.07-1.4a5.1,5.1,0,0,0-.14-1.24,2,2,0,0,0,.22-.59,6.34,6.34,0,0,0,.13-.78c0-.26,0-.53,0-.79a3.51,3.51,0,0,1,.09-.71c-.1-.33-.18-.61-.25-.87a3.39,3.39,0,0,1-.1-.9v-.31a12.06,12.06,0,0,0,.59-1.55c.16-.53.34-1.08.53-1.64v-.13c0-.86,0-1.71-.07-2.57s-.07-1.71-.07-2.56V32.6q0-.45,0-.84a1.06,1.06,0,0,0,.42-.49,1.06,1.06,0,0,1,.42-.49h1.16l.21-.44a1.86,1.86,0,0,0,.14-.49,3.07,3.07,0,0,0,.75-.37,6,6,0,0,0,.68-.51l.9-.64a5.74,5.74,0,0,1,.8-.49,5.89,5.89,0,0,1,.86-.33,7.67,7.67,0,0,1,1.05-.22.44.44,0,0,0,.37-.13,1.64,1.64,0,0,1,.26-.31q.42.09.84.15a4.76,4.76,0,0,0,.84.07,3.34,3.34,0,0,0,1.58-.4c.7,0,1.39,0,2.08,0s1.39-.05,2.09-.05,1.21,0,1.82.09a11.83,11.83,0,0,1,1.78.31,1.78,1.78,0,0,1,.7-.13A3.17,3.17,0,0,1,284,27a1.93,1.93,0,0,0,.86,0,2.36,2.36,0,0,0,.19.82A1.71,1.71,0,0,1,285.16,28.57Z" transform="translate(-20.32 -4.37)"/><path class="cls-1" d="M328.27,49a1.9,1.9,0,0,1-.36,1,4.33,4.33,0,0,1-.69.66,1.91,1.91,0,0,0-.33-.06,1.76,1.76,0,0,0-.33,0,4.7,4.7,0,0,0-2.05.36,9.15,9.15,0,0,1-2,.57,2.15,2.15,0,0,1-.65.07,1.62,1.62,0,0,0-.61.07c-.75.14-1.54.26-2.38.35s-1.68.2-2.52.33-1.67.3-2.47.49a9.8,9.8,0,0,0-2.26.82l-.21-.2a.31.31,0,0,0-.25-.11,1.65,1.65,0,0,0-.66.13,1.16,1.16,0,0,1-.63.09,2.33,2.33,0,0,1-.76.37,5.45,5.45,0,0,1-.8.18,5.38,5.38,0,0,0-.79.2,2,2,0,0,0-.74.49,1.3,1.3,0,0,0-.68-.2.58.58,0,0,1-.54-.33,4.66,4.66,0,0,1-1.7.62,9.83,9.83,0,0,1-1.8.08,9,9,0,0,1-1.37-.22,9,9,0,0,1-3-1.3,3.35,3.35,0,0,1-1.36-2.1,1.23,1.23,0,0,0-.49-.8c.07-.68.15-1.34.24-2s.19-1.31.28-2a17.36,17.36,0,0,0,1.33-1.6,20.07,20.07,0,0,0,1.19-1.76,6.42,6.42,0,0,0,1.25-1c.38-.38.77-.77,1.15-1.17s.77-.79,1.16-1.17a7.9,7.9,0,0,1,1.24-1,1.28,1.28,0,0,1,.3-.51l.4-.4a3.31,3.31,0,0,0,.39-.44,1.35,1.35,0,0,0,.24-.6,9.1,9.1,0,0,0,2.14-2.34,8.24,8.24,0,0,0,1.19-3.19,3,3,0,0,0-1.35-.82,11,11,0,0,0-1.56-.28,11.69,11.69,0,0,0-1.45,0,8.62,8.62,0,0,1-1.52-.05,6,6,0,0,1-1.6.4l-1.62.16a9.7,9.7,0,0,0-1.6.26,4.52,4.52,0,0,0-1.52.73.71.71,0,0,1-.26,0,.81.81,0,0,0-.27-.05,3.65,3.65,0,0,0-2.1.56l-1.92,1.17a.72.72,0,0,0-.07.26,1.44,1.44,0,0,0,.08.51,1.44,1.44,0,0,1,.09.51.18.18,0,0,0,0,.09.16.16,0,0,1,0,.09,2.15,2.15,0,0,1-.09.4c0,.11-.07.25-.12.39a11.51,11.51,0,0,0-.42,2.79c0,.77,0,1.52,0,2.26s0,1.49,0,2.25a15.55,15.55,0,0,1-.35,2.66c.12.71.22,1.45.31,2.23s.21,1.56.36,2.33a22.61,22.61,0,0,0,.5,2.23,11.11,11.11,0,0,0,.79,2.06.1.1,0,0,0,0,.13.23.23,0,0,0,.14,0h.28c.11,0,.16.06.14.18a2.08,2.08,0,0,1,.1.24.39.39,0,0,0,.14.2.44.44,0,0,1,0,.36,4.56,4.56,0,0,1-.35,1.63,5.18,5.18,0,0,0-.38,1.64,2.53,2.53,0,0,1-.77.13,1.87,1.87,0,0,1-1.06-.42,5.2,5.2,0,0,1-.84-.9c-.25-.36-.5-.72-.73-1.09a5.31,5.31,0,0,0-.77-1c-.17-.82-.32-1.74-.48-2.74a8.76,8.76,0,0,0-.75-2.57,2.76,2.76,0,0,0,.14-1,7.33,7.33,0,0,0-.12-1.75,6.81,6.81,0,0,1-.09-1.75,5.39,5.39,0,0,1,.09-1,8,8,0,0,0,.12-1,5.06,5.06,0,0,0-.12-1.46,5.44,5.44,0,0,1-.12-1.46,3.82,3.82,0,0,1,.12-.69,2.32,2.32,0,0,1,.26-.6,2.22,2.22,0,0,1-.1-1,12.2,12.2,0,0,1,.14-1.42c.07-.44.11-.88.14-1.33a5.07,5.07,0,0,0,0-.68,6.12,6.12,0,0,0-.1-.64l-.32-.14a.69.69,0,0,0-.4.14,1.4,1.4,0,0,0-.33.31l-.25.28a.27.27,0,0,1-.21.11.47.47,0,0,1-.16,0l-.15,0q-.07,0-.27.18c-.13.12-.28.24-.45.37l-.51.4a1.35,1.35,0,0,1-.39.25,1.15,1.15,0,0,1-.61-.34q-.23-.24-.42-.48a4.41,4.41,0,0,0-.4-.45.62.62,0,0,0-.53-.15,1.81,1.81,0,0,1-.12-.58,4.33,4.33,0,0,1,0-.62v-.7a2.63,2.63,0,0,1,.65-.95,4.52,4.52,0,0,1,.86-.65l.91-.53a3.7,3.7,0,0,0,.84-.66h.31a1.56,1.56,0,0,0,1.1-.31,6.29,6.29,0,0,0,.9-.82l.86-.95a3.39,3.39,0,0,1,1-.75,4.48,4.48,0,0,0,.8.37,3.31,3.31,0,0,0,.88.2,3,3,0,0,0,.95-.17,1.47,1.47,0,0,0,.77-.67.88.88,0,0,0,.29.11,1.32,1.32,0,0,0,.3,0,2.07,2.07,0,0,0,1.05-.2,6.64,6.64,0,0,0,1-.6,4.92,4.92,0,0,0,1.38-.11c.46-.1.91-.22,1.37-.33s.91-.23,1.36-.33a5,5,0,0,1,1.39-.12,7.24,7.24,0,0,0,2.27-.26,6.51,6.51,0,0,1,2.28-.22q.81,0,1.59.15a7.77,7.77,0,0,0,1.6.07c.3.18.57.33.82.46a1.39,1.39,0,0,0,.93.11,15.41,15.41,0,0,1,2,2.79v.75a9.36,9.36,0,0,1-.28,2c-.17.65-.36,1.29-.58,1.93s-.46,1.25-.72,1.86-.5,1.2-.73,1.79c-1.52,1.74-3,3.46-4.56,5.18s-3.08,3.36-4.69,4.95a5.23,5.23,0,0,1-.19.8,2.94,2.94,0,0,0-.16.75,1.12,1.12,0,0,0,0,.35,1,1,0,0,1,.43.33.82.82,0,0,1,.13.65h.31c.12,0,.18.06.18.17l.56,0a13.18,13.18,0,0,0,2.66-.09c.89-.12,1.78-.25,2.68-.4l2.68-.42a23.68,23.68,0,0,1,2.66-.24,3.51,3.51,0,0,1,.67-.22,1.35,1.35,0,0,0,.62-.36h.11a.42.42,0,0,1,.37.18.52.52,0,0,0,.37.22.83.83,0,0,0,.36-.09,2,2,0,0,1,.41-.13,3.85,3.85,0,0,1,1-.22c.36,0,.72-.08,1.07-.14,1.35-.14,2.69-.24,4-.28a16.77,16.77,0,0,0,4-.64.92.92,0,0,0,.49.42l.66.22a4.91,4.91,0,0,1,.65.24A.75.75,0,0,1,328.27,49Z" transform="translate(-20.32 -4.37)"/></svg>